# xmcd
#
# Track frame offsets:
#  150
#  17300
#  36237
#  55550
#  78462
#  116437
#  141437
#  161850
#  177012
#  197662
#
# Disc length: 2995 seconds
#
# Revision: 0
# Processed by: cddbd v1.4PL0 Copyright (c) Steve Scherf et al.
# Submitted via: AltoMP3_Maker 3.0
#
DISCID=7a0bb10a
DTITLE=王菲 - 最精彩的演唱会（下）
DYEAR=1900
DGENRE=
TTITLE0=知己知彼
TTITLE1=胡思乱想
TTITLE2=誓言
TTITLE3=棋子
TTITLE4=执迷不悔
TTITLE5=容易受伤的女人
TTITLE6=冷战
TTITLE7=千言万语
TTITLE8=出路
TTITLE9=我愿意
EXTD=
EXTT0=
EXTT1=
EXTT2=
EXTT3=
EXTT4=
EXTT5=
EXTT6=
EXTT7=
EXTT8=
EXTT9=
PLAYORDER=
